<?xml version="1.0" standalone="no"?>
<!DOCTYPE svg PUBLIC "-//W3C//DTD SVG 20010904//EN"
 "http://www.w3.org/TR/2001/REC-SVG-20010904/DTD/svg10.dtd">
<svg version="1.0" xmlns="http://www.w3.org/2000/svg"
 width="260.000000pt" height="260.000000pt" viewBox="0 0 260.000000 260.000000"
 preserveAspectRatio="xMidYMid meet">
<metadata>
Created by potrace 1.11, written by Peter Selinger 2001-2013
</metadata>
<g transform="translate(0.000000,260.000000) scale(0.100000,-0.100000)"
fill="#000000" stroke="none">
<path d="M428 1605 c-2 -2 -39 -6 -83 -10 -203 -17 -278 -25 -288 -32 -11 -7
-2 -129 12 -165 5 -14 21 -38 35 -53 29 -31 35 -50 66 -210 37 -192 100 -285
234 -350 112 -54 242 -72 366 -50 46 8 156 53 205 83 127 79 167 136 215 307
39 138 58 165 118 165 62 0 78 -22 113 -150 7 -25 13 -47 14 -50 1 -3 5 -18
10 -35 31 -117 121 -209 268 -275 138 -61 287 -71 420 -26 199 67 287 183 322
421 15 108 25 137 61 178 19 20 34 43 35 50 0 6 2 21 4 32 14 73 15 113 3 122
-7 6 -39 14 -70 17 -71 7 -161 17 -208 22 -19 3 -120 6 -225 9 -223 5 -297 -5
-543 -68 -190 -50 -218 -51 -362 -12 -89 24 -220 55 -300 71 -35 7 -415 15
-422 9z m367 -76 c103 -15 176 -31 285 -61 201 -56 251 -55 457 1 215 59 304
70 530 66 106 -2 196 -6 200 -8 5 -3 49 -8 98 -12 50 -4 97 -9 105 -10 28 -4
16 -82 -18 -119 -33 -36 -50 -74 -57 -131 -5 -42 -8 -55 -26 -145 -34 -166
-127 -259 -299 -300 -154 -37 -340 12 -464 121 -56 49 -85 108 -117 232 -23
87 -41 129 -68 158 -20 21 -79 45 -106 43 -11 -1 -32 -2 -47 -3 -17 -1 -42
-15 -66 -38 -32 -31 -45 -55 -66 -124 -14 -48 -26 -93 -26 -101 0 -8 -14 -42
-31 -76 -47 -96 -154 -169 -305 -210 -153 -41 -346 7 -438 108 -56 63 -78 119
-109 290 -3 14 -8 43 -12 65 -10 50 -37 105 -64 127 -19 16 -28 67 -18 95 2 9
0 8 102 17 95 7 199 18 202 20 8 7 308 2 358 -5z"/>
<path d="M530 1458 c-92 -10 -144 -33 -184 -80 -43 -49 -54 -96 -44 -173 31
-223 163 -341 374 -331 145 7 277 86 336 201 46 89 56 191 24 254 -35 66 -92
97 -211 115 -147 22 -206 25 -295 14z"/>
<path d="M1948 1465 c-1 -1 -34 -5 -72 -9 -38 -4 -71 -8 -75 -10 -4 -3 -26 -7
-50 -11 -134 -20 -198 -95 -189 -222 15 -194 195 -345 405 -339 182 5 289 93
337 278 45 174 -27 281 -204 303 -71 8 -148 14 -152 10z"/>
</g>
</svg>
